<?xml version="1.0" encoding="UTF-8"?>
<svg id="Capa_2" data-name="Capa 2" xmlns="http://www.w3.org/2000/svg" viewBox="0 0 326.78 242.73">
  <defs>
    <style>
      .cls-1 {
        fill: #d9e8e8;
      }

      .cls-1, .cls-2 {
        stroke-width: 0px;
      }

      .cls-2 {
        fill: #f401a2;
      }
    </style>
  </defs>
  <g id="Capa_1-2" data-name="Capa 1">
    <g>
      <path class="cls-1" d="m261.67,142.47v-78.25h65.1v89.97c0,14.76-2.73,27.3-8.2,37.63-5.47,10.33-13.07,18.84-22.79,25.52-9.73,6.69-20.92,11.85-33.59,15.5-12.68,3.64-26.26,6.2-40.76,7.68-14.5,1.47-42.61,2.21-57.54,2.21-15.8,0-45.24-.69-59.99-2.17-14.76-1.48-28.43-4.04-41.02-7.68-12.59-3.65-23.57-8.81-32.94-15.5-9.37-6.68-16.71-15.19-22-25.52-5.3-10.33-7.94-22.87-7.94-37.63v-90.02h65.11v78.3c0,13.89,3.38,24.48,10.16,31.77,6.77,7.29,16.45,12.28,29.04,14.97,12.59,2.69,41.89,3.99,59.6,3.99s45.52-1.34,58.19-4.04c12.67-2.69,22.44-7.68,29.3-14.97,6.85-7.29,10.29-17.88,10.29-31.77Z"/>
      <rect class="cls-2" x="131.28" width="64.97" height="128.43"/>
    </g>
  </g>
</svg>