<?xml version="1.0" encoding="UTF-8"?>
<svg id="Capa_2" data-name="Capa 2" xmlns="http://www.w3.org/2000/svg" viewBox="0 0 886.62 270.44">
  <defs>
    <style>
      .cls-1 {
        fill: #f401a2;
      }

      .cls-2 {
        fill: #d9e8e8;
      }
    </style>
  </defs>
  <g id="Capa_1-2" data-name="Capa 1">
    <g>
      <g>
        <path class="cls-2" d="M201.2,109.54V49.37h50.06V118.55c0,11.35-2.1,20.99-6.31,28.93-4.2,7.94-10.05,14.49-17.52,19.62-7.48,5.14-16.09,9.11-25.83,11.91-9.75,2.8-20.19,4.77-31.34,5.91-11.15,1.13-32.76,1.7-44.24,1.7-12.15,0-34.78-.53-46.13-1.66-11.35-1.14-21.86-3.1-31.54-5.91-9.68-2.8-18.12-6.77-25.33-11.91-7.21-5.14-12.85-11.68-16.92-19.62-4.07-7.94-6.11-17.59-6.11-28.93V49.37H50.06v60.21c0,10.68,2.6,18.82,7.81,24.43,5.21,5.61,12.65,9.45,22.33,11.51,9.68,2.07,32.21,3.07,45.83,3.07s35-1.03,44.74-3.1c9.74-2.07,17.25-5.91,22.53-11.51,5.27-5.61,7.91-13.75,7.91-24.43Z"/>
        <rect class="cls-1" x="100.94" y="0" width="49.95" height="98.75"/>
      </g>
      <path class="cls-2" d="M269.32,49.69h46.68V186.6h-46.68V49.69Zm168.85,35.78l-80.93,58.47,.97-25.79,82.67,68.45h-59.13l-64.97-55.36,59.53-45.77h61.85Z"/>
      <path class="cls-2" d="M501.95,38.39v29.76h-49.41v-29.76h49.41Zm-48.04,47.14h46.68v101.08h-46.68V85.52Z"/>
      <path class="cls-2" d="M517.3,85.87h49.6l59.3,93.92-40.26,3.89-68.64-97.82Zm184.29-.33l-134.13,184.9h-47.65l77.22-102.9,54.96-82h49.6Z"/>
      <path class="cls-2" d="M795.01,186.6c-20.62,0-37.77-1.69-51.45-5.06-13.68-3.37-23.93-8.75-30.73-16.14-6.81-7.39-10.21-17.12-10.21-29.18s3.4-21.82,10.21-29.27c6.81-7.45,17.05-12.9,30.73-16.34,13.68-3.43,30.83-5.16,51.45-5.16s37.51,1.72,51.06,5.16c13.55,3.44,23.7,8.88,30.44,16.34,6.74,7.46,10.12,17.21,10.12,29.27s-3.37,21.79-10.12,29.18c-6.74,7.39-16.89,12.77-30.44,16.14-13.55,3.37-30.57,5.06-51.06,5.06Zm0-28.2c9.6,0,17.63-.81,24.12-2.43,6.48-1.62,11.41-4.09,14.78-7.39,3.37-3.31,5.06-7.42,5.06-12.35s-1.65-9.08-4.96-12.45c-3.31-3.37-8.2-5.9-14.69-7.59-6.49-1.68-14.59-2.53-24.31-2.53s-17.73,.84-24.41,2.53c-6.68,1.69-11.74,4.18-15.17,7.49-3.44,3.31-5.16,7.49-5.16,12.55s1.68,9.04,5.06,12.35c3.37,3.31,8.39,5.77,15.08,7.39,6.68,1.62,14.88,2.43,24.6,2.43Z"/>
      <rect class="cls-1" x="702.65" y="225.03" width="183.94" height="28.2"/>
      <g>
        <path class="cls-2" d="M31.88,268.82c-2.37-1.08-4.19-2.62-5.46-4.61-1.27-2-1.91-4.32-1.91-6.97v-.96c0-2.72,.64-5.09,1.91-7.11,1.27-2.02,3.08-3.56,5.44-4.64,2.35-1.08,5.12-1.62,8.3-1.62,2.86,0,5.44,.49,7.74,1.46,2.3,.97,4.09,2.32,5.38,4.03,1.29,1.72,1.94,3.65,1.94,5.81v.21h-5.25v-.21c0-1.27-.42-2.41-1.25-3.42-.83-1.01-2-1.79-3.5-2.36-1.5-.57-3.19-.85-5.07-.85-3.25,0-5.8,.77-7.64,2.31-1.84,1.54-2.76,3.69-2.76,6.44v.85c0,2.69,.92,4.79,2.76,6.31,1.84,1.52,4.38,2.28,7.64,2.28,1.91,0,3.61-.28,5.09-.85,1.48-.57,2.64-1.34,3.47-2.33,.83-.99,1.25-2.12,1.25-3.39v-.21h5.25v.21c0,2.19-.64,4.14-1.91,5.83-1.27,1.7-3.05,3.02-5.33,3.98-2.28,.95-4.89,1.43-7.82,1.43-3.15,0-5.91-.54-8.27-1.62Z"/>
        <path class="cls-2" d="M120.45,268.82c-2.37-1.08-4.19-2.62-5.46-4.61-1.27-2-1.91-4.34-1.91-7.03v-.9c0-2.72,.64-5.09,1.91-7.11,1.27-2.02,3.09-3.56,5.46-4.64,2.37-1.08,5.16-1.62,8.38-1.62s5.95,.54,8.3,1.62c2.35,1.08,4.15,2.62,5.41,4.64,1.25,2.02,1.88,4.38,1.88,7.11v.9c0,2.69-.63,5.03-1.88,7.03-1.26,2-3.06,3.54-5.41,4.61-2.35,1.08-5.12,1.62-8.3,1.62s-6.01-.54-8.38-1.62Zm15.96-5.33c1.84-1.52,2.76-3.62,2.76-6.31v-.9c0-2.72-.92-4.85-2.76-6.39-1.84-1.54-4.38-2.31-7.64-2.31s-5.9,.76-7.72,2.28c-1.82,1.52-2.73,3.66-2.73,6.42v.9c0,2.69,.93,4.79,2.78,6.31,1.86,1.52,4.41,2.28,7.66,2.28s5.8-.76,7.64-2.28Z"/>
        <path class="cls-2" d="M225.09,248.01h-11.88v21.8h-5.09v-21.8h-9.18v-4.45h9.18v-2.44c0-2.55,.75-4.55,2.25-6.02,1.5-1.47,3.56-2.2,6.18-2.2h6.42v4.51h-5.78c-1.27,0-2.25,.34-2.94,1.01-.69,.67-1.03,1.66-1.03,2.97v2.18h11.88v4.45Z"/>
        <path class="cls-2" d="M298.92,248.01h-11.88v21.8h-5.09v-21.8h-9.18v-4.45h9.18v-2.44c0-2.55,.75-4.55,2.25-6.02,1.5-1.47,3.56-2.2,6.18-2.2h6.42v4.51h-5.78c-1.27,0-2.25,.34-2.94,1.01-.69,.67-1.03,1.66-1.03,2.97v2.18h11.88v4.45Z"/>
        <path class="cls-2" d="M384.68,258.35h-25.3c.18,2.3,1.17,4.11,2.97,5.44,1.8,1.33,4.21,1.99,7.21,1.99,2.79,0,5.07-.47,6.82-1.4,1.75-.94,2.7-2.18,2.84-3.74h5.46c-.28,3.08-1.76,5.48-4.43,7.21-2.67,1.73-6.23,2.6-10.69,2.6-3.15,0-5.89-.54-8.22-1.62-2.33-1.08-4.13-2.61-5.38-4.59-1.26-1.98-1.88-4.3-1.88-6.95v-1.11c0-2.69,.63-5.03,1.88-7.03,1.25-2,3.05-3.53,5.38-4.61,2.33-1.08,5.07-1.62,8.22-1.62,4.7,0,8.4,1.16,11.08,3.47,2.69,2.32,4.03,5.51,4.03,9.57v2.39Zm-21.98-9.04c-1.75,1.15-2.82,2.75-3.21,4.8h19.78c-.32-2.05-1.33-3.65-3.02-4.8-1.7-1.15-3.92-1.72-6.68-1.72s-5.12,.58-6.87,1.72Z"/>
        <path class="cls-2" d="M470.45,258.35h-25.3c.18,2.3,1.17,4.11,2.97,5.44,1.8,1.33,4.21,1.99,7.21,1.99,2.79,0,5.07-.47,6.82-1.4,1.75-.94,2.7-2.18,2.84-3.74h5.46c-.28,3.08-1.76,5.48-4.43,7.21-2.67,1.73-6.23,2.6-10.69,2.6-3.15,0-5.89-.54-8.22-1.62-2.33-1.08-4.13-2.61-5.38-4.59-1.26-1.98-1.88-4.3-1.88-6.95v-1.11c0-2.69,.63-5.03,1.88-7.03,1.25-2,3.05-3.53,5.38-4.61,2.33-1.08,5.07-1.62,8.22-1.62,4.7,0,8.4,1.16,11.08,3.47,2.69,2.32,4.03,5.51,4.03,9.57v2.39Zm-21.98-9.04c-1.75,1.15-2.82,2.75-3.21,4.8h19.78c-.32-2.05-1.33-3.65-3.02-4.8-1.7-1.15-3.92-1.72-6.68-1.72s-5.12,.58-6.87,1.72Z"/>
      </g>
      <path class="cls-2" d="M501.91,37.94v29.76h-49.41v-29.76h49.41Zm-48.04,47.14h46.68v101.08h-46.68V85.08Z"/>
    </g>
  </g>
</svg>